<svg xmlns="http://www.w3.org/2000/svg" width="20" height="20" viewBox="0 0 20 20">
  <g fill="none" fill-rule="evenodd">
    <path fill="#485A96" d="M18.8961202,20 C19.5056483,20 19.9998501,19.5057232 19.9998501,18.8961951 L19.9998501,1.10380487 C19.9998501,0.494051968 19.5055734,0 18.8961202,0 L1.10380487,0 C0.494051968,0 0,0.494126904 0,1.10380487 L0,18.8961202 C0,19.5057232 0.494051968,19.9999251 1.10380487,19.9999251 L18.8961202,19.9999251 L18.8961202,20 Z"/>
    <path fill="#FFF" d="M13.7995841,20 L13.7995841,12.2549317 L16.3992581,12.2549317 L16.7884749,9.23651623 L13.7995092,9.23651623 L13.7995092,7.30939133 C13.7995092,6.43548961 14.0421514,5.83997452 15.2953783,5.83997452 L16.8936848,5.83922516 L16.8936848,3.13958673 C16.6172465,3.10286817 15.6684089,3.02066356 14.564679,3.02066356 C12.2601772,3.02066356 10.6824781,4.42728414 10.6824781,7.01054722 L10.6824781,9.23651623 L8.07613481,9.23651623 L8.07613481,12.2549317 L10.6824781,12.2549317 L10.6824781,19.9999251 L13.7995841,19.9999251 L13.7995841,20 Z"/>
  </g>
</svg>
