<?xml version="1.0" standalone="no"?><!-- Generator: Gravit.io --><svg xmlns="http://www.w3.org/2000/svg" xmlns:xlink="http://www.w3.org/1999/xlink" style="isolation:isolate" viewBox="0 0 340.157 283.465" width="340.157" height="283.465"><defs><clipPath id="_clipPath_sjhpuYIg4UJmKYAWtQajBHZZfT4rQViC"><rect width="340.157" height="283.465"/></clipPath></defs><g clip-path="url(#_clipPath_sjhpuYIg4UJmKYAWtQajBHZZfT4rQViC)"><path d=" M 110 199.945 Q 140 229.944 170 229.944 Q 200 229.944 230 199.945" fill="none" vector-effect="non-scaling-stroke" stroke-width="6" stroke="rgb(0,0,0)" stroke-linejoin="miter" stroke-linecap="square" stroke-miterlimit="3"/><g><path d=" M 126.5 126.795 L 142.5 126.795 L 142.5 146.906 L 142.5 126.795 L 158.5 126.795" fill="none" vector-effect="non-scaling-stroke" stroke-width="4" stroke="rgb(0,0,0)" stroke-linejoin="miter" stroke-linecap="square" stroke-miterlimit="3"/><path d=" M 181.5 126.795 L 197.5 126.795 L 197.5 146.906 L 197.5 126.795 L 213.5 126.795" fill="none" vector-effect="non-scaling-stroke" stroke-width="4" stroke="rgb(0,0,0)" stroke-linejoin="miter" stroke-linecap="square" stroke-miterlimit="3"/></g><mask id="_mask_xuUAoUY7zJqFoB3gTBMZrDZxUPEydKsg"><path d=" M 155 157.944 L 185 157.944 L 170 177.944 L 155 157.944 Z " fill="white" stroke="none"/></mask><path d=" M 155 157.944 L 185 157.944 L 170 177.944 L 155 157.944 Z " fill="rgb(0,0,0)" mask="url(#_mask_xuUAoUY7zJqFoB3gTBMZrDZxUPEydKsg)" vector-effect="non-scaling-stroke" stroke-width="6" stroke="rgb(0,0,0)" stroke-linejoin="miter" stroke-linecap="square" stroke-miterlimit="3"/><path d=" M 170 186.492 Q 169.992 188.68 169.992 195.873 C 169.992 201.032 169.612 205.188 166.772 207.781 C 165.289 209.135 163.136 209.945 160.015 209.945 Q 152.889 209.945 150 200.563" fill="none" vector-effect="non-scaling-stroke" stroke-width="4" stroke="rgb(0,0,0)" stroke-linejoin="miter" stroke-linecap="square" stroke-miterlimit="3"/><g><path d=" M 120 159.945 L 120 159.945 L 64 136.85" fill="none" vector-effect="non-scaling-stroke" stroke-width="5" stroke="rgb(0,0,0)" stroke-linejoin="miter" stroke-linecap="square" stroke-miterlimit="3"/><path d=" M 220 179.944 L 220 179.944 L 276 203.039" fill="none" vector-effect="non-scaling-stroke" stroke-width="5" stroke="rgb(0,0,0)" stroke-linejoin="miter" stroke-linecap="square" stroke-miterlimit="3"/><path d=" M 64 203.039 L 120 179.945 L 120 179.945" fill="none" vector-effect="non-scaling-stroke" stroke-width="5" stroke="rgb(0,0,0)" stroke-linejoin="miter" stroke-linecap="square" stroke-miterlimit="3"/><path d=" M 276 136.85 L 220 159.944 L 220 159.944" fill="none" vector-effect="non-scaling-stroke" stroke-width="5" stroke="rgb(0,0,0)" stroke-linejoin="miter" stroke-linecap="square" stroke-miterlimit="3"/><line x1="120" y1="169.945" x2="50" y2="169.945" vector-effect="non-scaling-stroke" stroke-width="5" stroke="rgb(0,0,0)" stroke-linejoin="miter" stroke-linecap="square" stroke-miterlimit="3"/><line x1="220" y1="169.944" x2="290" y2="169.944" vector-effect="non-scaling-stroke" stroke-width="5" stroke="rgb(0,0,0)" stroke-linejoin="miter" stroke-linecap="square" stroke-miterlimit="3"/></g><g><path d=" M 240 136.85 L 240 136.85 L 250 50 L 170 109.944 L 90 50 L 100 136.85 L 100 136.85 L 100 136.85" fill="none" vector-effect="non-scaling-stroke" stroke-width="6" stroke="rgb(0,0,0)" stroke-linejoin="miter" stroke-linecap="square" stroke-miterlimit="3"/><mask id="_mask_s4vcJJGHoRasz0B8rXVD5If9T52ubf7q"><path d=" M 102 69.85 L 107.333 112.944 L 135 96.944 L 102 69.85 Z " fill="white" stroke="none"/></mask><path d=" M 102 69.85 L 107.333 112.944 L 135 96.944 L 102 69.85 Z " fill="rgb(255,148,148)" mask="url(#_mask_s4vcJJGHoRasz0B8rXVD5If9T52ubf7q)" vector-effect="non-scaling-stroke" stroke-width="4" stroke="rgb(0,0,0)" stroke-linejoin="miter" stroke-linecap="round" stroke-miterlimit="3"/><mask id="_mask_Tfs1ZQOVWKTGLCxWDBDkG7r9lzwPvRxt"><path d=" M 238 69.85 L 232.667 112.944 L 205 96.944 L 238 69.85 Z " fill="white" stroke="none"/></mask><path d=" M 238 69.85 L 232.667 112.944 L 205 96.944 L 238 69.85 Z " fill="rgb(255,148,148)" mask="url(#_mask_Tfs1ZQOVWKTGLCxWDBDkG7r9lzwPvRxt)" vector-effect="non-scaling-stroke" stroke-width="4" stroke="rgb(0,0,0)" stroke-linejoin="miter" stroke-linecap="round" stroke-miterlimit="3"/></g></g></svg>