<svg xmlns="http://www.w3.org/2000/svg" width="22" height="18" viewBox="0 0 22 18">
  <path fill="#5DA8DC" stroke="#5DA8DC" stroke-width=".5" d="M14.3633904,134.003607 L14.3633904,134 L15.3011722,134 L15.6438233,134.06853 C15.8722633,134.113021 16.0796573,134.171326 16.2660054,134.243463 C16.4523715,134.3156 16.6327142,134.399766 16.8070334,134.495942 C16.9813706,134.592119 17.139477,134.690117 17.2813526,134.789901 C17.4220198,134.888494 17.5482597,134.993093 17.6600721,135.103697 C17.7706583,135.215509 17.9431921,135.244364 18.1776375,135.190261 C18.412083,135.136159 18.6645627,135.06101 18.9350766,134.964833 C19.2055906,134.868656 19.4731109,134.760451 19.7376014,134.640216 C20.00211,134.519982 20.1632281,134.443643 20.2209378,134.411181 C20.2774391,134.377529 20.3075023,134.359495 20.3111091,134.357078 L20.3146979,134.351668 L20.3327322,134.342651 L20.3507665,134.333634 L20.3688007,134.324617 L20.386835,134.3156 L20.3904418,134.310189 L20.3958521,134.306583 L20.4012804,134.302976 L20.4048693,134.297565 L20.4229035,134.292155 L20.4409378,134.288548 L20.437349,134.3156 L20.4319206,134.342651 L20.4229035,134.369702 L20.4138864,134.396754 L20.4048693,134.414788 L20.3958521,134.432822 L20.386835,134.459874 C20.3808296,134.477908 20.3748242,134.501948 20.3688007,134.532011 C20.3627953,134.562074 20.3056808,134.68229 20.1974752,134.892696 C20.0892696,135.103102 19.9540126,135.316501 19.7917042,135.532913 C19.6293959,135.749324 19.4839315,135.912822 19.3552931,136.023445 C19.2254463,136.135257 19.139477,136.213399 19.097385,136.25789 C19.0553111,136.303571 19.00422,136.345645 18.9440938,136.38413 L18.8539225,136.443643 L18.8358882,136.45266 L18.8178539,136.461677 L18.8142651,136.467087 L18.8088368,136.470694 L18.8034265,136.474301 L18.7998197,136.479711 L18.7817854,136.488729 L18.7637511,136.497746 L18.7601623,136.503156 L18.754734,136.506763 L18.7493237,136.51037 L18.7457169,136.51578 L18.742128,136.52119 L18.7366997,136.524797 L18.7312894,136.528404 L18.7276826,136.533814 L18.8178539,136.533814 L19.3228133,136.425609 C19.659459,136.353472 19.981064,136.266312 20.2876465,136.164112 L20.7745717,136.001803 L20.8286745,135.983769 L20.8557259,135.974752 L20.8737601,135.965735 L20.8917944,135.956718 L20.9098287,135.947701 L20.9278629,135.938683 L20.9639315,135.933273 L21,135.929666 L21,135.965735 L20.9909829,135.969342 L20.9819657,135.974752 L20.9783769,135.980162 L20.9729486,135.983769 L20.9675383,135.987376 L20.9639315,135.992786 L20.9603427,135.998197 L20.9549143,136.001803 L20.9495041,136.00541 L20.9458972,136.010821 L20.9423084,136.016231 L20.9368801,136.019838 L20.9278629,136.037872 L20.9188458,136.055906 L20.9134355,136.059513 C20.911037,136.06312 20.8346979,136.165302 20.6844004,136.366096 C20.5341208,136.568079 20.4529666,136.670261 20.4409378,136.672678 C20.428927,136.676285 20.412083,136.694319 20.3904418,136.726781 C20.370009,136.760433 20.2425609,136.8945 20.0081154,137.128945 C19.77367,137.36339 19.5440577,137.571975 19.3192245,137.754734 C19.0932011,137.938683 18.978972,138.164707 18.9765735,138.432822 C18.9729666,138.699729 18.9591344,139.001515 18.9350766,139.338142 C18.911037,139.674788 18.8659513,140.038467 18.7998197,140.429216 C18.733706,140.819964 18.6315059,141.261803 18.4932372,141.754734 C18.3549865,142.247665 18.1866546,142.728584 17.9882777,143.197475 C17.7899008,143.666366 17.5825068,144.08716 17.3660956,144.459874 C17.1496844,144.832588 16.9513075,145.148188 16.7709648,145.406673 C16.5906222,145.665158 16.4072858,145.90862 16.2209197,146.13706 C16.0345717,146.3655 15.798936,146.622795 15.5139946,146.908927 C15.2278449,147.193868 15.07156,147.350171 15.0451037,147.377818 C15.0174572,147.404274 14.8996393,147.502867 14.6916141,147.67358 C14.4848332,147.8455 14.2623986,148.017421 14.0243463,148.18936 C13.7875023,148.36009 13.5698828,148.502561 13.3715059,148.616772 C13.1731289,148.730983 12.9338864,148.861425 12.6537421,149.008115 C12.3748242,149.155996 12.0730388,149.293057 11.748422,149.419297 C11.4238052,149.545537 11.0811542,149.662759 10.7204689,149.770965 C10.3597836,149.87917 10.0111271,149.963336 9.67448151,150.023445 C9.33785392,150.083553 8.95612263,150.134662 8.52930568,150.176736 L7.88908927,150.239856 L7.88908927,150.248873 L6.71686204,150.248873 L6.71686204,150.239856 L6.56357078,150.230839 C6.46138864,150.224833 6.37722272,150.21881 6.31109107,150.212804 C6.24497746,150.206799 5.99549143,150.173724 5.56266907,150.113616 C5.12984671,150.053508 4.79020739,149.993381 4.54373309,149.933273 C4.29727683,149.873165 3.93056808,149.758936 3.44364292,149.590622 C2.95671776,149.422308 2.54012624,149.252173 2.19386835,149.080252 C1.84881876,148.909522 1.63240757,148.801317 1.54463481,148.755636 C1.45807033,148.711145 1.3606853,148.655852 1.25247971,148.58972 L1.09017133,148.490532 L1.08658251,148.485122 L1.08115419,148.481515 L1.07574391,148.477908 L1.07213706,148.472498 L1.0541028,148.463481 L1.03606853,148.454463 L1.03247971,148.449053 L1.0270514,148.445446 L1.02164112,148.441839 L1.01803427,148.436429 L1.01444545,148.431019 L1.00901713,148.427412 L1,148.427412 L1,148.391344 L1.01803427,148.39495 L1.03606853,148.400361 L1.11722272,148.409378 C1.17132552,148.415383 1.31861136,148.4244 1.55906222,148.436429 C1.79953111,148.448458 2.05500451,148.448458 2.32551849,148.436429 C2.59603246,148.4244 2.87256988,148.397349 3.15509468,148.355275 C3.43763751,148.313201 3.77127142,148.241064 4.15599639,148.138864 C4.5407394,148.036664 4.894211,147.915239 5.21642922,147.774572 C5.53743913,147.632714 5.76586114,147.526907 5.90173129,147.457169 C6.03637511,147.388638 6.24196573,147.26119 6.51848512,147.074842 L6.93327322,146.795311 L6.93688007,146.789901 L6.94229035,146.786294 L6.94771867,146.782687 L6.95130748,146.777277 L6.95491434,146.771867 L6.96032462,146.76826 L6.96575293,146.764653 L6.96934175,146.759243 L6.98737601,146.753832 L7.00541028,146.750225 L7.00901713,146.732191 L7.01442741,146.714157 L7.01985573,146.71055 L7.02344454,146.70514 L6.87917042,146.696123 C6.78299369,146.690117 6.68981064,146.684094 6.59963931,146.678088 C6.50946799,146.672083 6.36820559,146.645032 6.17583408,146.596934 C5.98348061,146.548837 5.77608656,146.4767 5.55365194,146.380523 C5.33123535,146.284346 5.11482417,146.170117 4.90441839,146.037872 C4.69403066,145.905627 4.54192967,145.7956 4.44815149,145.707845 C4.35558161,145.621262 4.23534716,145.498647 4.08746619,145.339946 C3.94079351,145.180054 3.81334536,145.015924 3.70513977,144.84761 C3.59693417,144.679297 3.49354373,144.485104 3.39496844,144.265104 L3.24526601,143.93688 L3.23624887,143.909829 L3.22723174,143.882777 L3.22182146,143.864743 L3.21821461,143.846709 L3.24526601,143.850316 L3.2723174,143.855726 L3.47069432,143.882777 C3.60295762,143.900812 3.81035167,143.906817 4.09287647,143.900812 C4.3754193,143.894806 4.57078449,143.882777 4.67899008,143.864743 C4.78719567,143.846709 4.85332732,143.83468 4.877367,143.828674 L4.91343553,143.819657 L4.95852119,143.81064 L5.00360685,143.801623 L5.00721371,143.796213 L5.01262399,143.792606 L5.0180523,143.788999 L5.02164112,143.783589 L4.98557259,143.774572 L4.94950406,143.765555 L4.91343553,143.756537 L4.877367,143.74752 L4.84129847,143.738503 C4.81725879,143.732498 4.77518485,143.720469 4.71505861,143.702435 C4.65495041,143.6844 4.49264202,143.618269 4.22813345,143.504058 C3.96364292,143.389847 3.75323715,143.278629 3.59693417,143.170424 C3.44024374,143.061905 3.2908398,142.943225 3.1496844,142.815149 C3.00901713,142.685302 2.85453562,142.518179 2.68620379,142.313796 C2.51788999,142.109414 2.36761046,141.871957 2.23534716,141.601443 C2.10310189,141.330929 2.00391344,141.072444 1.93778179,140.825969 C1.87191606,140.580945 1.82846102,140.33044 1.80795311,140.077547 L1.7754734,139.698828 L1.79350766,139.702435 L1.81154193,139.707845 L1.82957619,139.716862 L1.84761046,139.725879 L1.86564472,139.734896 L1.88367899,139.743913 L2.1632101,139.870153 C2.34957619,139.954319 2.58100992,140.026456 2.85752931,140.086564 C3.13406673,140.146673 3.2993688,140.179748 3.3534716,140.185753 L3.43462579,140.19477 L3.59693417,140.19477 L3.59334536,140.18936 L3.58791704,140.185753 L3.58250676,140.182146 L3.57889991,140.176736 L3.57531109,140.171326 L3.56988278,140.167719 L3.5644725,140.164112 L3.56086564,140.158702 L3.54283138,140.149684 L3.52479711,140.140667 L3.5212083,140.135257 L3.51577998,140.13165 L3.5103697,140.128043 L3.50676285,140.122633 L3.48872858,140.113616 L3.47069432,140.104599 L3.4671055,140.099188 C3.46349865,140.096772 3.41179441,140.058305 3.31199279,139.983769 C3.21339946,139.908025 3.11000902,139.810045 3.00180343,139.689811 C2.89359784,139.569576 2.78539225,139.443336 2.67718665,139.311091 C2.56878184,139.178543 2.47222811,139.03673 2.38863841,138.887286 C2.30449053,138.737006 2.21550947,138.545825 2.12173129,138.313796 C2.02916141,138.082958 1.95882777,137.850316 1.91073039,137.61587 C1.86265104,137.381425 1.83559964,137.149991 1.82957619,136.921551 C1.82357078,136.693111 1.82957619,136.497746 1.84761046,136.335437 C1.86564472,136.173129 1.90171326,135.989775 1.95581605,135.785392 C2.00991885,135.58101 2.08807935,135.364599 2.1902615,135.136159 L2.34355275,134.793508 L2.35256988,134.766456 L2.36158702,134.739405 L2.36701533,134.735798 L2.37060415,134.730388 L2.374211,134.724977 L2.37962128,134.721371 L2.38504959,134.724977 L2.38863841,134.730388 L2.39224527,134.735798 L2.39765555,134.739405 L2.40308386,134.743012 L2.40667268,134.748422 L2.41027953,134.753832 L2.41568981,134.757439 L2.42470694,134.775473 L2.43372408,134.793508 L2.43915239,134.797115 L2.44274121,134.802525 L2.68620379,135.073039 C2.84851217,135.253381 3.04088368,135.45477 3.26330027,135.677187 C3.4857349,135.899603 3.60896303,136.015023 3.63300271,136.023445 C3.65706041,136.033057 3.6871055,136.060703 3.72317403,136.106402 C3.75924256,136.150893 3.87947701,136.257295 4.08385933,136.425609 C4.28825969,136.593922 4.55576195,136.789306 4.88638413,137.011722 C5.21702435,137.234139 5.58371506,137.453562 5.9864743,137.669973 C6.38925158,137.886384 6.82207394,138.081749 7.28494139,138.256087 C7.74782687,138.430424 8.07244364,138.544635 8.2587917,138.598738 C8.4451578,138.65284 8.76375113,138.721966 9.21460775,138.806132 C9.66546438,138.890298 10.0051217,138.9444 10.2335437,138.96844 C10.4619838,138.99248 10.6182867,139.006312 10.7024346,139.009919 L10.8286745,139.013526 L10.8250857,138.986474 L10.8196573,138.959423 L10.7835888,138.733995 C10.7595491,138.583715 10.7475203,138.373309 10.7475203,138.102795 C10.7475203,137.832281 10.7685663,137.582813 10.8106402,137.354373 C10.8527322,137.125933 10.9158521,136.8945 11,136.660054 C11.0841659,136.425609 11.1665284,136.237439 11.2470694,136.095582 C11.3288368,135.954914 11.4358341,135.794409 11.5680794,135.614067 C11.7003427,135.433724 11.8716682,135.247376 12.0820559,135.055005 C12.2924617,134.862633 12.5329125,134.691307 12.8034265,134.541028 C13.0739405,134.390748 13.3234265,134.276519 13.5518485,134.198377 C13.7802885,134.120234 13.9726601,134.069125 14.128945,134.045086 C14.285248,134.021046 14.3633904,134.007214 14.3633904,134.003607 Z" transform="translate(0 -133)"/>
</svg>
